<?xml version="1.0" standalone="no"?><!DOCTYPE svg PUBLIC "-//W3C//DTD SVG 1.1//EN" "http://www.w3.org/Graphics/SVG/1.1/DTD/svg11.dtd"><svg t="1620995554269" class="icon" viewBox="0 0 1024 1024" version="1.1" xmlns="http://www.w3.org/2000/svg" p-id="4555" xmlns:xlink="http://www.w3.org/1999/xlink" width="64" height="64"><defs><style type="text/css"></style></defs><path d="M868.1 742.6H216.197c-13.988 0-25.327 11.336-25.327 25.353 0 13.994 11.36 25.328 25.327 25.328H868.101c13.995 0 25.333-11.334 25.333-25.328-0.002-14.017-11.338-25.352-25.334-25.352m-344.949-54.168c4.73 4.758 11.238 7.733 18.473 7.733 7.232 0 13.74-2.95 18.422-7.757l314.837-314.84c4.733-4.704 7.715-11.214 7.731-18.395 0-14.342-11.712-25.958-25.972-25.958-7.214-0.02-13.695 2.93-18.377 7.637L567.579 607.519V117.524c-0.025-0.026-0.025-0.026-0.025-0.05 0.025-14.345-11.592-25.982-25.901-25.982-14.348 0-25.96 11.635-25.96 25.981 0 0 0 0.025 0.024 0.051v489.968L245.055 336.826a25.801 25.801 0 0 0-18.374-7.608c-14.342-0.02-25.954 11.614-26.006 25.907a25.816 25.816 0 0 0 7.684 18.424l314.792 314.884m0 0z" p-id="4556"></path></svg>